<svg width="148" height="22" viewBox="0 0 148 22" fill="none" xmlns="http://www.w3.org/2000/svg">
<path d="M14.68 2.16V16H12.86V5.68L8.26 16H6.98L2.36 5.66V16H0.54V2.16H2.5L7.62 13.6L12.74 2.16H14.68ZM17.0866 10.48C17.0866 9.36 17.3132 8.38 17.7666 7.54C18.2199 6.68667 18.8399 6.02667 19.6266 5.56C20.4266 5.09333 21.3132 4.86 22.2866 4.86C23.2466 4.86 24.0799 5.06667 24.7866 5.48C25.4932 5.89333 26.0199 6.41333 26.3666 7.04V5.04H28.2066V16H26.3666V13.96C26.0066 14.6 25.4666 15.1333 24.7466 15.56C24.0399 15.9733 23.2132 16.18 22.2666 16.18C21.2932 16.18 20.4132 15.94 19.6266 15.46C18.8399 14.98 18.2199 14.3067 17.7666 13.44C17.3132 12.5733 17.0866 11.5867 17.0866 10.48ZM26.3666 10.5C26.3666 9.67333 26.1999 8.95333 25.8666 8.34C25.5332 7.72667 25.0799 7.26 24.5066 6.94C23.9466 6.60667 23.3266 6.44 22.6466 6.44C21.9666 6.44 21.3466 6.6 20.7866 6.92C20.2266 7.24 19.7799 7.70667 19.4466 8.32C19.1132 8.93333 18.9466 9.65333 18.9466 10.48C18.9466 11.32 19.1132 12.0533 19.4466 12.68C19.7799 13.2933 20.2266 13.7667 20.7866 14.1C21.3466 14.42 21.9666 14.58 22.6466 14.58C23.3266 14.58 23.9466 14.42 24.5066 14.1C25.0799 13.7667 25.5332 13.2933 25.8666 12.68C26.1999 12.0533 26.3666 11.3267 26.3666 10.5ZM36.6222 4.84C37.9555 4.84 39.0355 5.24667 39.8622 6.06C40.6889 6.86 41.1022 8.02 41.1022 9.54V16H39.3022V9.8C39.3022 8.70667 39.0289 7.87333 38.4822 7.3C37.9355 6.71333 37.1889 6.42 36.2422 6.42C35.2822 6.42 34.5155 6.72 33.9422 7.32C33.3822 7.92 33.1022 8.79333 33.1022 9.94V16H31.2822V5.04H33.1022V6.6C33.4622 6.04 33.9489 5.60667 34.5622 5.3C35.1889 4.99333 35.8755 4.84 36.6222 4.84ZM45.0152 3.26C44.6685 3.26 44.3752 3.14 44.1352 2.9C43.8952 2.66 43.7752 2.36667 43.7752 2.02C43.7752 1.67333 43.8952 1.38 44.1352 1.14C44.3752 0.899999 44.6685 0.779999 45.0152 0.779999C45.3485 0.779999 45.6285 0.899999 45.8552 1.14C46.0952 1.38 46.2152 1.67333 46.2152 2.02C46.2152 2.36667 46.0952 2.66 45.8552 2.9C45.6285 3.14 45.3485 3.26 45.0152 3.26ZM45.8952 5.04V16H44.0752V5.04H45.8952ZM52.877 16.18C52.037 16.18 51.2837 16.04 50.617 15.76C49.9504 15.4667 49.4237 15.0667 49.037 14.56C48.6504 14.04 48.437 13.4467 48.397 12.78H50.277C50.3304 13.3267 50.5837 13.7733 51.037 14.12C51.5037 14.4667 52.1104 14.64 52.857 14.64C53.5504 14.64 54.097 14.4867 54.497 14.18C54.897 13.8733 55.097 13.4867 55.097 13.02C55.097 12.54 54.8837 12.1867 54.457 11.96C54.0304 11.72 53.3704 11.4867 52.477 11.26C51.6637 11.0467 50.997 10.8333 50.477 10.62C49.9704 10.3933 49.5304 10.0667 49.157 9.64C48.797 9.2 48.617 8.62667 48.617 7.92C48.617 7.36 48.7837 6.84667 49.117 6.38C49.4504 5.91333 49.9237 5.54667 50.537 5.28C51.1504 5 51.8504 4.86 52.637 4.86C53.8504 4.86 54.8304 5.16667 55.577 5.78C56.3237 6.39333 56.7237 7.23333 56.777 8.3H54.957C54.917 7.72667 54.6837 7.26667 54.257 6.92C53.8437 6.57333 53.2837 6.4 52.577 6.4C51.9237 6.4 51.4037 6.54 51.017 6.82C50.6304 7.1 50.437 7.46667 50.437 7.92C50.437 8.28 50.5504 8.58 50.777 8.82C51.017 9.04667 51.3104 9.23333 51.657 9.38C52.017 9.51333 52.5104 9.66667 53.137 9.84C53.9237 10.0533 54.5637 10.2667 55.057 10.48C55.5504 10.68 55.9704 10.9867 56.317 11.4C56.677 11.8133 56.8637 12.3533 56.877 13.02C56.877 13.62 56.7104 14.16 56.377 14.64C56.0437 15.12 55.5704 15.5 54.957 15.78C54.357 16.0467 53.6637 16.18 52.877 16.18ZM64.8863 4.84C65.7129 4.84 66.4596 5.02 67.1263 5.38C67.7929 5.72667 68.3129 6.25333 68.6863 6.96C69.0729 7.66667 69.2663 8.52667 69.2663 9.54V16H67.4663V9.8C67.4663 8.70667 67.1929 7.87333 66.6463 7.3C66.0996 6.71333 65.3529 6.42 64.4063 6.42C63.4463 6.42 62.6796 6.72 62.1063 7.32C61.5463 7.92 61.2663 8.79333 61.2663 9.94V16H59.4463V1.2H61.2663V6.6C61.6263 6.04 62.1196 5.60667 62.7463 5.3C63.3863 4.99333 64.0996 4.84 64.8863 4.84ZM71.5592 10.48C71.5592 9.36 71.7859 8.38 72.2392 7.54C72.6926 6.68667 73.3126 6.02667 74.0992 5.56C74.8992 5.09333 75.7859 4.86 76.7592 4.86C77.7192 4.86 78.5526 5.06667 79.2592 5.48C79.9659 5.89333 80.4926 6.41333 80.8392 7.04V5.04H82.6792V16H80.8392V13.96C80.4792 14.6 79.9392 15.1333 79.2192 15.56C78.5126 15.9733 77.6859 16.18 76.7392 16.18C75.7659 16.18 74.8859 15.94 74.0992 15.46C73.3126 14.98 72.6926 14.3067 72.2392 13.44C71.7859 12.5733 71.5592 11.5867 71.5592 10.48ZM80.8392 10.5C80.8392 9.67333 80.6726 8.95333 80.3392 8.34C80.0059 7.72667 79.5526 7.26 78.9792 6.94C78.4192 6.60667 77.7992 6.44 77.1192 6.44C76.4392 6.44 75.8192 6.6 75.2592 6.92C74.6992 7.24 74.2526 7.70667 73.9192 8.32C73.5859 8.93333 73.4192 9.65333 73.4192 10.48C73.4192 11.32 73.5859 12.0533 73.9192 12.68C74.2526 13.2933 74.6992 13.7667 75.2592 14.1C75.8192 14.42 76.4392 14.58 77.1192 14.58C77.7992 14.58 78.4192 14.42 78.9792 14.1C79.5526 13.7667 80.0059 13.2933 80.3392 12.68C80.6726 12.0533 80.8392 11.3267 80.8392 10.5ZM86.0348 2.06H88.0548L86.1348 6.6H84.8548L86.0348 2.06ZM94.0098 16.18C93.1698 16.18 92.4165 16.04 91.7498 15.76C91.0832 15.4667 90.5565 15.0667 90.1698 14.56C89.7832 14.04 89.5698 13.4467 89.5298 12.78H91.4098C91.4632 13.3267 91.7165 13.7733 92.1698 14.12C92.6365 14.4667 93.2432 14.64 93.9898 14.64C94.6832 14.64 95.2298 14.4867 95.6298 14.18C96.0298 13.8733 96.2298 13.4867 96.2298 13.02C96.2298 12.54 96.0165 12.1867 95.5898 11.96C95.1632 11.72 94.5032 11.4867 93.6098 11.26C92.7965 11.0467 92.1298 10.8333 91.6098 10.62C91.1032 10.3933 90.6632 10.0667 90.2898 9.64C89.9298 9.2 89.7498 8.62667 89.7498 7.92C89.7498 7.36 89.9165 6.84667 90.2498 6.38C90.5832 5.91333 91.0565 5.54667 91.6698 5.28C92.2832 5 92.9832 4.86 93.7698 4.86C94.9832 4.86 95.9632 5.16667 96.7098 5.78C97.4565 6.39333 97.8565 7.23333 97.9098 8.3H96.0898C96.0498 7.72667 95.8165 7.26667 95.3898 6.92C94.9765 6.57333 94.4165 6.4 93.7098 6.4C93.0565 6.4 92.5365 6.54 92.1498 6.82C91.7632 7.1 91.5698 7.46667 91.5698 7.92C91.5698 8.28 91.6832 8.58 91.9098 8.82C92.1498 9.04667 92.4432 9.23333 92.7898 9.38C93.1498 9.51333 93.6432 9.66667 94.2698 9.84C95.0565 10.0533 95.6965 10.2667 96.1898 10.48C96.6832 10.68 97.1032 10.9867 97.4498 11.4C97.8098 11.8133 97.9965 12.3533 98.0098 13.02C98.0098 13.62 97.8432 14.16 97.5098 14.64C97.1765 15.12 96.7032 15.5 96.0898 15.78C95.4898 16.0467 94.7965 16.18 94.0098 16.18ZM107.731 7.08C108.104 6.42667 108.651 5.89333 109.371 5.48C110.091 5.06667 110.911 4.86 111.831 4.86C112.818 4.86 113.704 5.09333 114.491 5.56C115.278 6.02667 115.898 6.68667 116.351 7.54C116.804 8.38 117.031 9.36 117.031 10.48C117.031 11.5867 116.804 12.5733 116.351 13.44C115.898 14.3067 115.271 14.98 114.471 15.46C113.684 15.94 112.804 16.18 111.831 16.18C110.884 16.18 110.051 15.9733 109.331 15.56C108.624 15.1467 108.091 14.62 107.731 13.98V16H105.911V1.2H107.731V7.08ZM115.171 10.48C115.171 9.65333 115.004 8.93333 114.671 8.32C114.338 7.70667 113.884 7.24 113.311 6.92C112.751 6.6 112.131 6.44 111.451 6.44C110.784 6.44 110.164 6.60667 109.591 6.94C109.031 7.26 108.578 7.73333 108.231 8.36C107.898 8.97333 107.731 9.68667 107.731 10.5C107.731 11.3267 107.898 12.0533 108.231 12.68C108.578 13.2933 109.031 13.7667 109.591 14.1C110.164 14.42 110.784 14.58 111.451 14.58C112.131 14.58 112.751 14.42 113.311 14.1C113.884 13.7667 114.338 13.2933 114.671 12.68C115.004 12.0533 115.171 11.32 115.171 10.48ZM121.247 1.2V16H119.427V1.2H121.247ZM129.129 16.18C128.102 16.18 127.169 15.9467 126.329 15.48C125.502 15.0133 124.849 14.3533 124.369 13.5C123.902 12.6333 123.669 11.6333 123.669 10.5C123.669 9.38 123.909 8.39333 124.389 7.54C124.882 6.67333 125.549 6.01333 126.389 5.56C127.229 5.09333 128.169 4.86 129.209 4.86C130.249 4.86 131.189 5.09333 132.029 5.56C132.869 6.01333 133.529 6.66667 134.009 7.52C134.502 8.37333 134.749 9.36667 134.749 10.5C134.749 11.6333 134.495 12.6333 133.989 13.5C133.495 14.3533 132.822 15.0133 131.969 15.48C131.115 15.9467 130.169 16.18 129.129 16.18ZM129.129 14.58C129.782 14.58 130.395 14.4267 130.969 14.12C131.542 13.8133 132.002 13.3533 132.349 12.74C132.709 12.1267 132.889 11.38 132.889 10.5C132.889 9.62 132.715 8.87333 132.369 8.26C132.022 7.64667 131.569 7.19333 131.009 6.9C130.449 6.59333 129.842 6.44 129.189 6.44C128.522 6.44 127.909 6.59333 127.349 6.9C126.802 7.19333 126.362 7.64667 126.029 8.26C125.695 8.87333 125.529 9.62 125.529 10.5C125.529 11.3933 125.689 12.1467 126.009 12.76C126.342 13.3733 126.782 13.8333 127.329 14.14C127.875 14.4333 128.475 14.58 129.129 14.58ZM141.662 4.86C142.608 4.86 143.435 5.06667 144.142 5.48C144.862 5.89333 145.395 6.41333 145.742 7.04V5.04H147.582V16.24C147.582 17.24 147.368 18.1267 146.942 18.9C146.515 19.6867 145.902 20.3 145.102 20.74C144.315 21.18 143.395 21.4 142.342 21.4C140.902 21.4 139.702 21.06 138.742 20.38C137.782 19.7 137.215 18.7733 137.042 17.6H138.842C139.042 18.2667 139.455 18.8 140.082 19.2C140.708 19.6133 141.462 19.82 142.342 19.82C143.342 19.82 144.155 19.5067 144.782 18.88C145.422 18.2533 145.742 17.3733 145.742 16.24V13.94C145.382 14.58 144.848 15.1133 144.142 15.54C143.435 15.9667 142.608 16.18 141.662 16.18C140.688 16.18 139.802 15.94 139.002 15.46C138.215 14.98 137.595 14.3067 137.142 13.44C136.688 12.5733 136.462 11.5867 136.462 10.48C136.462 9.36 136.688 8.38 137.142 7.54C137.595 6.68667 138.215 6.02667 139.002 5.56C139.802 5.09333 140.688 4.86 141.662 4.86ZM145.742 10.5C145.742 9.67333 145.575 8.95333 145.242 8.34C144.908 7.72667 144.455 7.26 143.882 6.94C143.322 6.60667 142.702 6.44 142.022 6.44C141.342 6.44 140.722 6.6 140.162 6.92C139.602 7.24 139.155 7.70667 138.822 8.32C138.488 8.93333 138.322 9.65333 138.322 10.48C138.322 11.32 138.488 12.0533 138.822 12.68C139.155 13.2933 139.602 13.7667 140.162 14.1C140.722 14.42 141.342 14.58 142.022 14.58C142.702 14.58 143.322 14.42 143.882 14.1C144.455 13.7667 144.908 13.2933 145.242 12.68C145.575 12.0533 145.742 11.3267 145.742 10.5Z" fill="black"/>
</svg>
