<svg width="70" height="15" viewBox="0 0 70 15" fill="none" xmlns="http://www.w3.org/2000/svg">
<path d="M7.75 11H6.476L1.352 3.23V11H0.0780001V1.228H1.352L6.476 8.984V1.228H7.75V11ZM15.6898 8.83H11.4338L10.6498 11H9.30575L12.8338 1.298H14.3038L17.8178 11H16.4738L15.6898 8.83ZM15.3258 7.794L13.5618 2.866L11.7978 7.794H15.3258ZM22.4493 11.098C21.8053 11.098 21.2267 10.986 20.7133 10.762C20.2093 10.5287 19.8127 10.2113 19.5233 9.81C19.234 9.39933 19.0847 8.928 19.0753 8.396H20.4333C20.48 8.85333 20.6667 9.24067 20.9933 9.558C21.3293 9.866 21.8147 10.02 22.4493 10.02C23.056 10.02 23.532 9.87067 23.8773 9.572C24.232 9.264 24.4093 8.872 24.4093 8.396C24.4093 8.02267 24.3067 7.71933 24.1013 7.486C23.896 7.25267 23.6393 7.07533 23.3313 6.954C23.0233 6.83267 22.608 6.702 22.0853 6.562C21.4413 6.394 20.9233 6.226 20.5313 6.058C20.1487 5.89 19.8173 5.62867 19.5373 5.274C19.2667 4.91 19.1313 4.42467 19.1313 3.818C19.1313 3.286 19.2667 2.81467 19.5373 2.404C19.808 1.99333 20.186 1.676 20.6713 1.452C21.166 1.228 21.7307 1.116 22.3653 1.116C23.28 1.116 24.0267 1.34467 24.6053 1.802C25.1933 2.25933 25.5247 2.866 25.5993 3.622H24.1993C24.1527 3.24867 23.9567 2.922 23.6113 2.642C23.266 2.35267 22.8087 2.208 22.2393 2.208C21.7073 2.208 21.2733 2.348 20.9373 2.628C20.6013 2.89867 20.4333 3.28133 20.4333 3.776C20.4333 4.13067 20.5313 4.42 20.7273 4.644C20.9327 4.868 21.18 5.04067 21.4693 5.162C21.768 5.274 22.1833 5.40467 22.7153 5.554C23.3593 5.73133 23.8773 5.90867 24.2693 6.086C24.6613 6.254 24.9973 6.52 25.2773 6.884C25.5573 7.23867 25.6973 7.724 25.6973 8.34C25.6973 8.816 25.5713 9.264 25.3193 9.684C25.0673 10.104 24.694 10.4447 24.1993 10.706C23.7047 10.9673 23.1213 11.098 22.4493 11.098ZM28.8181 1.242V7.416C28.8181 8.284 29.0281 8.928 29.4481 9.348C29.8775 9.768 30.4701 9.978 31.2261 9.978C31.9728 9.978 32.5561 9.768 32.9761 9.348C33.4055 8.928 33.6201 8.284 33.6201 7.416V1.242H34.8941V7.402C34.8941 8.214 34.7308 8.9 34.4041 9.46C34.0775 10.0107 33.6341 10.4213 33.0741 10.692C32.5235 10.9627 31.9028 11.098 31.2121 11.098C30.5215 11.098 29.8961 10.9627 29.3361 10.692C28.7855 10.4213 28.3468 10.0107 28.0201 9.46C27.7028 8.9 27.5441 8.214 27.5441 7.402V1.242H28.8181ZM45.6378 5.974C45.9925 6.03 46.3145 6.17467 46.6038 6.408C46.9025 6.64133 47.1358 6.93067 47.3038 7.276C47.4812 7.62133 47.5698 7.99 47.5698 8.382C47.5698 8.87667 47.4438 9.32467 47.1918 9.726C46.9398 10.118 46.5712 10.4307 46.0858 10.664C45.6098 10.888 45.0452 11 44.3918 11H40.7518V1.242H44.2518C44.9145 1.242 45.4792 1.354 45.9458 1.578C46.4125 1.79267 46.7625 2.08667 46.9958 2.46C47.2292 2.83333 47.3458 3.25333 47.3458 3.72C47.3458 4.29867 47.1872 4.77933 46.8698 5.162C46.5618 5.53533 46.1512 5.806 45.6378 5.974ZM42.0258 5.456H44.1678C44.7652 5.456 45.2272 5.316 45.5538 5.036C45.8805 4.756 46.0438 4.36867 46.0438 3.874C46.0438 3.37933 45.8805 2.992 45.5538 2.712C45.2272 2.432 44.7558 2.292 44.1398 2.292H42.0258V5.456ZM44.2798 9.95C44.9145 9.95 45.4092 9.80067 45.7638 9.502C46.1185 9.20333 46.2958 8.788 46.2958 8.256C46.2958 7.71467 46.1092 7.29 45.7358 6.982C45.3625 6.66467 44.8632 6.506 44.2378 6.506H42.0258V9.95H44.2798ZM50.6118 0.64V11H49.3378V0.64H50.6118ZM56.1291 11.126C55.4104 11.126 54.7571 10.9627 54.1691 10.636C53.5904 10.3093 53.1331 9.84733 52.7971 9.25C52.4704 8.64333 52.3071 7.94333 52.3071 7.15C52.3071 6.366 52.4751 5.67533 52.8111 5.078C53.1564 4.47133 53.6231 4.00933 54.2111 3.692C54.7991 3.36533 55.4571 3.202 56.1851 3.202C56.9131 3.202 57.5711 3.36533 58.1591 3.692C58.7471 4.00933 59.2091 4.46667 59.5451 5.064C59.8904 5.66133 60.0631 6.35667 60.0631 7.15C60.0631 7.94333 59.8857 8.64333 59.5311 9.25C59.1857 9.84733 58.7144 10.3093 58.1171 10.636C57.5197 10.9627 56.8571 11.126 56.1291 11.126ZM56.1291 10.006C56.5864 10.006 57.0157 9.89867 57.4171 9.684C57.8184 9.46933 58.1404 9.14733 58.3831 8.718C58.6351 8.28867 58.7611 7.766 58.7611 7.15C58.7611 6.534 58.6397 6.01133 58.3971 5.582C58.1544 5.15267 57.8371 4.83533 57.4451 4.63C57.0531 4.41533 56.6284 4.308 56.1711 4.308C55.7044 4.308 55.2751 4.41533 54.8831 4.63C54.5004 4.83533 54.1924 5.15267 53.9591 5.582C53.7257 6.01133 53.6091 6.534 53.6091 7.15C53.6091 7.77533 53.7211 8.30267 53.9451 8.732C54.1784 9.16133 54.4864 9.48333 54.8691 9.698C55.2517 9.90333 55.6717 10.006 56.1291 10.006ZM64.9022 3.202C65.5648 3.202 66.1435 3.34667 66.6382 3.636C67.1422 3.92533 67.5155 4.28933 67.7582 4.728V3.328H69.0462V11.168C69.0462 11.868 68.8968 12.4887 68.5982 13.03C68.2995 13.5807 67.8702 14.01 67.3102 14.318C66.7595 14.626 66.1155 14.78 65.3782 14.78C64.3702 14.78 63.5302 14.542 62.8582 14.066C62.1862 13.59 61.7895 12.9413 61.6682 12.12H62.9282C63.0682 12.5867 63.3575 12.96 63.7962 13.24C64.2348 13.5293 64.7622 13.674 65.3782 13.674C66.0782 13.674 66.6475 13.4547 67.0862 13.016C67.5342 12.5773 67.7582 11.9613 67.7582 11.168V9.558C67.5062 10.006 67.1328 10.3793 66.6382 10.678C66.1435 10.9767 65.5648 11.126 64.9022 11.126C64.2208 11.126 63.6002 10.958 63.0402 10.622C62.4895 10.286 62.0555 9.81467 61.7382 9.208C61.4208 8.60133 61.2622 7.91067 61.2622 7.136C61.2622 6.352 61.4208 5.666 61.7382 5.078C62.0555 4.48067 62.4895 4.01867 63.0402 3.692C63.6002 3.36533 64.2208 3.202 64.9022 3.202ZM67.7582 7.15C67.7582 6.57133 67.6415 6.06733 67.4082 5.638C67.1748 5.20867 66.8575 4.882 66.4562 4.658C66.0642 4.42467 65.6302 4.308 65.1542 4.308C64.6782 4.308 64.2442 4.42 63.8522 4.644C63.4602 4.868 63.1475 5.19467 62.9142 5.624C62.6808 6.05333 62.5642 6.55733 62.5642 7.136C62.5642 7.724 62.6808 8.23733 62.9142 8.676C63.1475 9.10533 63.4602 9.43667 63.8522 9.67C64.2442 9.894 64.6782 10.006 65.1542 10.006C65.6302 10.006 66.0642 9.894 66.4562 9.67C66.8575 9.43667 67.1748 9.10533 67.4082 8.676C67.6415 8.23733 67.7582 7.72867 67.7582 7.15Z" fill="black"/>
</svg>
